# xmcd CD database file
#
# Track frame offsets:
#	150
#	24487
#	45850
#	63212
#	88062
#	105600
#	128700
#	137762
#	157937
#	171150
#	189050
#	200412
#	225812
#	254262
#	329362
#
# Disc length: 4603 seconds
#
# Revision: 3
# Processed by: cddbd v1.5.2PL0 Copyright (c) Steve Scherf et al.
# Submitted via: CDex 1.51
#
DISCID=b211f90f
DTITLE=Pacific Gas And Electric - Are You Ready - Pacific Gas And Electric (2 On 1)
DYEAR=1969
DGENRE=Rock
TTITLE0=Are You Ready?
TTITLE1=Hawg For You
TTITLE2=Staggolee
TTITLE3=The Blackberry
TTITLE4=Love, Love, Love, Love, Love
TTITLE5=Mother, Why Do You Cry?
TTITLE6=Elvira
TTITLE7=Screamin'
TTITLE8=Bluesbuster
TTITLE9=Death Row #172
TTITLE10=Miss Lucy
TTITLE11=My Woman
TTITLE12=She's Long And She's Tall
TTITLE13=Pg&E Suite: The Young Rabbits, Constitutional Strand, Fat Tom, Boy Wonder
TTITLE14=Redneck
EXTD=YEAR: 1969
EXTT0=
EXTT1=
EXTT2=
EXTT3=
EXTT4=
EXTT5=
EXTT6=
EXTT7=
EXTT8=
EXTT9=
EXTT10=
EXTT11=
EXTT12=
EXTT13=
EXTT14=
PLAYORDER=
